<?xml version="1.0" encoding="UTF-8"?>
<!DOCTYPE svg PUBLIC "-//W3C//DTD SVG 1.1//EN" "http://www.w3.org/Graphics/SVG/1.1/DTD/svg11.dtd">
<svg xmlns="http://www.w3.org/2000/svg" version="1.1" width="500px" height="500px" style="shape-rendering:geometricPrecision; text-rendering:geometricPrecision; image-rendering:optimizeQuality; fill-rule:evenodd; clip-rule:evenodd" xmlns:xlink="http://www.w3.org/1999/xlink">
<g><path style="opacity:1" fill="#182026" d="M 241.5,176.5 C 239.205,175.525 237.205,174.192 235.5,172.5C 236.552,172.649 237.552,172.483 238.5,172C 233.899,169.378 228.899,168.211 223.5,168.5C 223.567,166.599 223.233,164.766 222.5,163C 226.917,142.462 233.084,122.629 241,103.5C 239.667,104.167 238.667,105.167 238,106.5C 237.23,105.402 236.397,105.402 235.5,106.5C 239.909,96.0034 245.576,86.3367 252.5,77.5C 252.539,78.5832 252.873,79.5832 253.5,80.5C 252.975,81.1924 252.308,81.6924 251.5,82C 252.126,82.7504 252.626,83.5838 253,84.5C 254.779,80.3882 257.612,77.2215 261.5,75C 266.56,74.2174 269.56,76.3841 270.5,81.5C 269.772,83.1547 269.605,84.8214 270,86.5C 270.333,85.8333 270.667,85.1667 271,84.5C 271.885,97.2822 269.718,109.449 264.5,121C 261.873,135.22 257.373,149.054 251,162.5C 249.334,161.66 249.167,162.16 250.5,164C 247.456,164.359 247.122,165.026 249.5,166C 247.699,166.317 247.366,166.984 248.5,168C 246.638,171.349 244.305,174.182 241.5,176.5 Z"/></g>
<g><path style="opacity:1" fill="#8b9096" d="M 248.5,99.5 C 249.693,99.9704 250.36,100.97 250.5,102.5C 244.438,123.519 237.271,144.186 229,164.5C 232.359,141.921 238.859,120.254 248.5,99.5 Z"/></g>
<g><path style="opacity:1" fill="#aeb9c9" d="M 323.5,166.5 C 308.167,166.5 292.833,166.5 277.5,166.5C 292.844,163.999 308.177,163.999 323.5,166.5 Z"/></g>
<g><path style="opacity:1" fill="#161718" d="M 253.5,167.5 C 249.717,172.424 247.55,178.09 247,184.5C 245.702,185.56 244.535,186.726 243.5,188C 240.315,204.708 235.648,220.875 229.5,236.5C 228.989,232.659 229.989,228.993 232.5,225.5C 232.291,224.914 231.957,224.414 231.5,224C 233.575,220.359 234.908,216.359 235.5,212C 235.317,210.316 234.65,210.15 233.5,211.5C 237.103,202.442 238.769,193.109 238.5,183.5C 232.612,179.808 226.279,178.808 219.5,180.5C 218.113,182.21 216.779,183.877 215.5,185.5C 215.389,184.883 215.056,184.383 214.5,184C 215.653,181.384 216.653,178.718 217.5,176C 216.906,175.536 216.239,175.369 215.5,175.5C 215.5,174.167 215.5,172.833 215.5,171.5C 219.835,149.17 226.502,127.504 235.5,106.5C 236.397,105.402 237.23,105.402 238,106.5C 238.667,105.167 239.667,104.167 241,103.5C 233.084,122.629 226.917,142.462 222.5,163C 223.233,164.766 223.567,166.599 223.5,168.5C 228.899,168.211 233.899,169.378 238.5,172C 237.552,172.483 236.552,172.649 235.5,172.5C 231.192,171.632 226.859,171.466 222.5,172C 220.74,172.965 220.406,174.132 221.5,175.5C 227.977,176.546 234.31,178.213 240.5,180.5C 241.167,180.167 241.833,179.833 242.5,179.5C 241.873,178.583 241.539,177.583 241.5,176.5C 244.305,174.182 246.638,171.349 248.5,168C 247.366,166.984 247.699,166.317 249.5,166C 247.122,165.026 247.456,164.359 250.5,164C 249.167,162.16 249.334,161.66 251,162.5C 257.373,149.054 261.873,135.22 264.5,121C 269.718,109.449 271.885,97.2822 271,84.5C 270.667,85.1667 270.333,85.8333 270,86.5C 269.605,84.8214 269.772,83.1547 270.5,81.5C 269.56,76.3841 266.56,74.2174 261.5,75C 257.612,77.2215 254.779,80.3882 253,84.5C 252.626,83.5838 252.126,82.7504 251.5,82C 252.308,81.6924 252.975,81.1924 253.5,80.5C 252.873,79.5832 252.539,78.5832 252.5,77.5C 256.698,71.0652 262.365,69.2319 269.5,72C 274.489,77.0968 276.489,83.2635 275.5,90.5C 272.626,117.453 265.293,143.12 253.5,167.5 Z M 235.5,172.5 C 237.205,174.192 239.205,175.525 241.5,176.5C 241.539,177.583 241.873,178.583 242.5,179.5C 241.833,179.833 241.167,180.167 240.5,180.5C 234.31,178.213 227.977,176.546 221.5,175.5C 220.406,174.132 220.74,172.965 222.5,172C 226.859,171.466 231.192,171.632 235.5,172.5 Z"/></g>
<g><path style="opacity:1" fill="#8d9fbc" d="M 215.5,171.5 C 215.5,172.833 215.5,174.167 215.5,175.5C 202.607,205.062 193.107,235.728 187,267.5C 185.571,275.119 185.238,282.785 186,290.5C 187.972,294.209 189.139,298.209 189.5,302.5C 190.689,303.429 192.022,303.762 193.5,303.5C 210.572,303.448 227.572,302.281 244.5,300C 259.833,299.667 275.167,299.333 290.5,299C 297.644,298.913 304.644,297.913 311.5,296C 316.7,293.862 317.7,290.529 314.5,286C 310.159,282.828 305.492,280.161 300.5,278C 291.602,274.885 282.936,271.218 274.5,267C 280.321,265.05 286.321,264.217 292.5,264.5C 314.521,264.804 336.521,264.304 358.5,263C 362.483,260.564 366.816,259.898 371.5,261C 369.333,262.5 367.5,264.333 366,266.5C 365.086,265.346 364.253,265.513 363.5,267C 365.833,267.333 368.167,267.667 370.5,268C 371.423,270.041 371.756,272.208 371.5,274.5C 368.091,274.249 364.758,274.583 361.5,275.5C 357.609,273.796 357.609,271.963 361.5,270C 350.262,268.631 339.095,267.131 328,265.5C 320.185,267.058 312.352,267.891 304.5,268C 308.57,268.443 312.57,269.277 316.5,270.5C 318.459,270.125 320.293,269.459 322,268.5C 328,269.833 334,269.833 340,268.5C 345.415,268.739 350.248,270.405 354.5,273.5C 356.443,277.399 355.276,279.732 351,280.5C 350.044,284.925 351.877,286.592 356.5,285.5C 355.562,277.545 357.895,276.045 363.5,281C 360.268,282.355 359.602,284.022 361.5,286C 359.026,286.113 357.026,287.113 355.5,289C 350.19,290.807 345.023,290.64 340,288.5C 338.426,289.984 337.093,291.651 336,293.5C 335.632,292.09 334.799,291.09 333.5,290.5C 325.559,290.91 325.559,292.577 333.5,295.5C 334.386,296.325 334.719,297.325 334.5,298.5C 329.323,299.669 324.156,299.669 319,298.5C 317.726,299.535 316.56,300.702 315.5,302C 316.759,302.923 318.092,303.757 319.5,304.5C 319.192,305.308 318.692,305.975 318,306.5C 315.003,306.134 311.67,305.8 308,305.5C 303.79,305.912 299.624,306.579 295.5,307.5C 298.508,310.968 301.842,311.301 305.5,308.5C 309.5,308.833 313.5,309.167 317.5,309.5C 319.931,307.249 322.598,307.082 325.5,309C 323.277,309.652 322.11,311.152 322,313.5C 321.667,313.167 321.333,312.833 321,312.5C 312.428,314.681 303.761,316.348 295,317.5C 294.228,316.151 293.061,315.318 291.5,315C 292.833,314.333 292.833,313.667 291.5,313C 289.209,312.985 287.042,312.818 285,312.5C 283.491,313.09 281.991,313.756 280.5,314.5C 281.167,315.5 281.833,316.5 282.5,317.5C 281.975,318.192 281.308,318.692 280.5,319C 273.656,320.094 266.823,321.261 260,322.5C 258.319,322.608 257.152,323.275 256.5,324.5C 246.752,325.423 237.252,326.756 228,328.5C 224.245,328.791 220.412,328.458 216.5,327.5C 216.649,326.448 216.483,325.448 216,324.5C 214.095,323.842 212.595,322.675 211.5,321C 206.988,320.5 202.488,320.667 198,321.5C 195.7,321.506 193.534,321.006 191.5,320C 189.294,316.961 187.294,313.794 185.5,310.5C 183.747,308.957 181.747,307.957 179.5,307.5C 179.842,306.662 180.508,306.328 181.5,306.5C 183.379,306.607 183.712,306.107 182.5,305C 181.207,304.51 179.873,304.343 178.5,304.5C 177.833,304.833 177.167,305.167 176.5,305.5C 175.167,305.833 173.833,306.167 172.5,306.5C 171.508,306.328 170.842,306.662 170.5,307.5C 169.833,307.5 169.5,307.833 169.5,308.5C 168.833,308.5 168.167,308.5 167.5,308.5C 165.332,308.335 162.999,308.668 160.5,309.5C 158.335,308.065 156.835,308.731 156,311.5C 152.673,310.591 150.506,311.924 149.5,315.5C 146.991,316.113 144.491,316.78 142,317.5C 141.147,315.875 140.147,315.542 139,316.5C 137.055,315.137 134.888,314.303 132.5,314C 130.167,311 127.833,308 125.5,305C 126.554,303.612 126.72,302.112 126,300.5C 121.488,290.282 116.988,280.115 112.5,270C 115.182,267.683 115.015,265.516 112,263.5C 110.833,259.833 109.667,256.167 108.5,252.5C 108.945,249.782 108.279,247.115 106.5,244.5C 109.828,241.833 113.494,239.667 117.5,238C 124.814,236.228 131.981,234.061 139,231.5C 136.08,223.283 133.58,215.116 131.5,207C 132.585,204.828 133.919,202.828 135.5,201C 160.28,188.74 186.28,180.073 213.5,175C 214.085,173.698 214.751,172.531 215.5,171.5 Z M 178.5,304.5 C 179.873,304.343 181.207,304.51 182.5,305C 183.712,306.107 183.379,306.607 181.5,306.5C 180.5,305.833 179.5,305.167 178.5,304.5 Z M 176.5,305.5 C 175.685,306.837 174.518,307.837 173,308.5C 172.536,307.906 172.369,307.239 172.5,306.5C 173.833,306.167 175.167,305.833 176.5,305.5 Z"/></g>
<g><path style="opacity:1" fill="#172026" d="M 233.5,211.5 C 226.321,237.872 216.488,263.205 204,287.5C 200.115,293.272 195.448,293.939 190,289.5C 190.455,271.545 193.122,253.878 198,236.5C 203.146,219.226 208.98,202.226 215.5,185.5C 216.779,183.877 218.113,182.21 219.5,180.5C 226.279,178.808 232.612,179.808 238.5,183.5C 238.769,193.109 237.103,202.442 233.5,211.5 Z"/></g>
<g><path style="opacity:1" fill="#888d93" d="M 219.5,189.5 C 220.097,189.735 220.43,190.235 220.5,191C 213.503,220.485 205.337,249.652 196,278.5C 200.23,247.915 208.063,218.249 219.5,189.5 Z"/></g>
<g><path style="opacity:1" fill="#434546" d="M 340.5,222.5 C 339.5,222.5 338.5,222.5 337.5,222.5C 338.209,221.596 339.209,221.263 340.5,221.5C 340.5,220.167 340.5,218.833 340.5,217.5C 336.833,217.5 333.167,217.5 329.5,217.5C 332.962,216.518 336.629,216.185 340.5,216.5C 346.229,216.788 351.896,216.454 357.5,215.5C 358.474,217.743 358.808,220.076 358.5,222.5C 352.5,222.5 346.5,222.5 340.5,222.5 Z"/></g>
<g><path style="opacity:1" fill="#232a34" d="M 329.5,217.5 C 333.167,217.5 336.833,217.5 340.5,217.5C 340.5,218.833 340.5,220.167 340.5,221.5C 339.209,221.263 338.209,221.596 337.5,222.5C 310.011,221.859 282.677,223.526 255.5,227.5C 258.367,228.774 261.367,229.607 264.5,230C 288.109,233.111 311.775,235.611 335.5,237.5C 335.843,239.483 335.176,240.817 333.5,241.5C 308.823,239.166 284.156,236.666 259.5,234C 253.797,233.185 248.13,232.185 242.5,231C 234.565,228.781 234.565,226.447 242.5,224C 271.319,219.48 300.319,217.314 329.5,217.5 Z"/></g>
<g><path style="opacity:1" fill="#8c9eb9" d="M 337.5,222.5 C 338.5,222.5 339.5,222.5 340.5,222.5C 340.627,226.31 340.794,230.31 341,234.5C 339.281,235.869 337.448,236.869 335.5,237.5C 311.775,235.611 288.109,233.111 264.5,230C 261.367,229.607 258.367,228.774 255.5,227.5C 282.677,223.526 310.011,221.859 337.5,222.5 Z"/></g>
<g><path style="opacity:1" fill="#8c9ebb" d="M 277.5,166.5 C 292.833,166.5 308.167,166.5 323.5,166.5C 325.067,167.681 325.901,169.347 326,171.5C 326.834,176.837 327.667,182.17 328.5,187.5C 327.57,191.504 327.07,195.504 327,199.5C 329.03,201.737 331.53,203.237 334.5,204C 335.743,205.154 336.743,206.488 337.5,208C 338.448,208.483 339.448,208.649 340.5,208.5C 340.5,211.167 340.5,213.833 340.5,216.5C 336.629,216.185 332.962,216.518 329.5,217.5C 300.319,217.314 271.319,219.48 242.5,224C 234.565,226.447 234.565,228.781 242.5,231C 248.13,232.185 253.797,233.185 259.5,234C 284.156,236.666 308.823,239.166 333.5,241.5C 334.568,242.434 335.901,242.768 337.5,242.5C 349.29,243.766 360.957,245.766 372.5,248.5C 373.167,248.5 373.5,248.833 373.5,249.5C 371.158,250.211 370.825,251.544 372.5,253.5C 372.5,253.833 372.5,254.167 372.5,254.5C 338.923,257.792 305.256,259.959 271.5,261C 268.377,261.206 265.377,261.873 262.5,263C 261.643,263.689 260.977,264.522 260.5,265.5C 261.748,267.459 263.415,268.959 265.5,270C 278.417,275.084 291.084,280.751 303.5,287C 307.127,289.112 307.127,290.779 303.5,292C 283.53,293.23 263.53,293.897 243.5,294C 228.526,295.571 213.526,296.738 198.5,297.5C 204.197,294.297 208.364,289.631 211,283.5C 218.295,268.249 224.461,252.583 229.5,236.5C 235.648,220.875 240.315,204.708 243.5,188C 244.535,186.726 245.702,185.56 247,184.5C 247.55,178.09 249.717,172.424 253.5,167.5C 254.449,168.152 255.615,168.486 257,168.5C 263.794,167.38 270.628,166.713 277.5,166.5 Z"/></g>
<g><path style="opacity:1" fill="#05070c" d="M 215.5,175.5 C 216.239,175.369 216.906,175.536 217.5,176C 216.653,178.718 215.653,181.384 214.5,184C 215.056,184.383 215.389,184.883 215.5,185.5C 208.98,202.226 203.146,219.226 198,236.5C 193.122,253.878 190.455,271.545 190,289.5C 195.448,293.939 200.115,293.272 204,287.5C 216.488,263.205 226.321,237.872 233.5,211.5C 234.65,210.15 235.317,210.316 235.5,212C 234.908,216.359 233.575,220.359 231.5,224C 231.957,224.414 232.291,224.914 232.5,225.5C 229.989,228.993 228.989,232.659 229.5,236.5C 224.461,252.583 218.295,268.249 211,283.5C 208.364,289.631 204.197,294.297 198.5,297.5C 196.863,299.475 195.196,301.475 193.5,303.5C 192.022,303.762 190.689,303.429 189.5,302.5C 189.139,298.209 187.972,294.209 186,290.5C 185.238,282.785 185.571,275.119 187,267.5C 193.107,235.728 202.607,205.062 215.5,175.5 Z"/></g>
<g><path style="opacity:1" fill="#262c38" d="M 337.5,242.5 C 348.949,240.753 360.282,241.587 371.5,245C 372.337,246.011 372.67,247.178 372.5,248.5C 360.957,245.766 349.29,243.766 337.5,242.5 Z"/></g>
<g><path style="opacity:1" fill="#505152" d="M 335.5,237.5 C 348.204,239.005 360.871,240.839 373.5,243C 377.637,243.934 381.637,245.268 385.5,247C 387.515,248.555 387.848,250.389 386.5,252.5C 382.251,255.289 377.585,256.955 372.5,257.5C 372.5,256.5 372.5,255.5 372.5,254.5C 372.5,254.167 372.5,253.833 372.5,253.5C 377.053,252.684 377.387,251.351 373.5,249.5C 373.5,248.833 373.167,248.5 372.5,248.5C 372.67,247.178 372.337,246.011 371.5,245C 360.282,241.587 348.949,240.753 337.5,242.5C 335.901,242.768 334.568,242.434 333.5,241.5C 335.176,240.817 335.843,239.483 335.5,237.5 Z"/></g>
<g><path style="opacity:1" fill="#91a2ba" d="M 372.5,257.5 C 372.864,262.69 373.03,268.023 373,273.5C 371.214,275.099 369.047,275.933 366.5,276C 366.957,276.414 367.291,276.914 367.5,277.5C 366.787,279.776 366.287,282.109 366,284.5C 362.775,286.009 360.942,288.176 360.5,291C 353.835,293 347.168,293.833 340.5,293.5C 338.465,295.111 337.798,296.944 338.5,299C 334.091,299.764 330.425,301.764 327.5,305C 332.987,306.87 332.82,308.37 327,309.5C 328.114,311.669 327.614,313.502 325.5,315C 302.562,318.601 279.562,321.767 256.5,324.5C 257.152,323.275 258.319,322.608 260,322.5C 266.823,321.261 273.656,320.094 280.5,319C 281.308,318.692 281.975,318.192 282.5,317.5C 281.833,316.5 281.167,315.5 280.5,314.5C 281.991,313.756 283.491,313.09 285,312.5C 287.042,312.818 289.209,312.985 291.5,313C 292.833,313.667 292.833,314.333 291.5,315C 293.061,315.318 294.228,316.151 295,317.5C 303.761,316.348 312.428,314.681 321,312.5C 321.333,312.833 321.667,313.167 322,313.5C 322.11,311.152 323.277,309.652 325.5,309C 322.598,307.082 319.931,307.249 317.5,309.5C 313.5,309.167 309.5,308.833 305.5,308.5C 301.842,311.301 298.508,310.968 295.5,307.5C 299.624,306.579 303.79,305.912 308,305.5C 311.67,305.8 315.003,306.134 318,306.5C 318.692,305.975 319.192,305.308 319.5,304.5C 318.092,303.757 316.759,302.923 315.5,302C 316.56,300.702 317.726,299.535 319,298.5C 324.156,299.669 329.323,299.669 334.5,298.5C 334.719,297.325 334.386,296.325 333.5,295.5C 325.559,292.577 325.559,290.91 333.5,290.5C 334.799,291.09 335.632,292.09 336,293.5C 337.093,291.651 338.426,289.984 340,288.5C 345.023,290.64 350.19,290.807 355.5,289C 357.026,287.113 359.026,286.113 361.5,286C 359.602,284.022 360.268,282.355 363.5,281C 357.895,276.045 355.562,277.545 356.5,285.5C 351.877,286.592 350.044,284.925 351,280.5C 355.276,279.732 356.443,277.399 354.5,273.5C 350.248,270.405 345.415,268.739 340,268.5C 334,269.833 328,269.833 322,268.5C 320.293,269.459 318.459,270.125 316.5,270.5C 312.57,269.277 308.57,268.443 304.5,268C 312.352,267.891 320.185,267.058 328,265.5C 339.095,267.131 350.262,268.631 361.5,270C 357.609,271.963 357.609,273.796 361.5,275.5C 364.758,274.583 368.091,274.249 371.5,274.5C 371.756,272.208 371.423,270.041 370.5,268C 368.167,267.667 365.833,267.333 363.5,267C 364.253,265.513 365.086,265.346 366,266.5C 367.5,264.333 369.333,262.5 371.5,261C 366.816,259.898 362.483,260.564 358.5,263C 336.521,264.304 314.521,264.804 292.5,264.5C 309.989,263.266 327.656,262.433 345.5,262C 354.584,260.917 363.584,259.417 372.5,257.5 Z"/></g>
<g><path style="opacity:1" fill="#7f7f7f" d="M 191.5,294.5 C 197.101,295.57 197.101,297.903 191.5,301.5C 190.286,299.141 190.286,296.808 191.5,294.5 Z"/></g>
<g><path style="opacity:1" fill="#232a33" d="M 372.5,254.5 C 372.5,255.5 372.5,256.5 372.5,257.5C 363.584,259.417 354.584,260.917 345.5,262C 327.656,262.433 309.989,263.266 292.5,264.5C 286.321,264.217 280.321,265.05 274.5,267C 282.936,271.218 291.602,274.885 300.5,278C 305.492,280.161 310.159,282.828 314.5,286C 317.7,290.529 316.7,293.862 311.5,296C 304.644,297.913 297.644,298.913 290.5,299C 275.167,299.333 259.833,299.667 244.5,300C 227.572,302.281 210.572,303.448 193.5,303.5C 195.196,301.475 196.863,299.475 198.5,297.5C 213.526,296.738 228.526,295.571 243.5,294C 263.53,293.897 283.53,293.23 303.5,292C 307.127,290.779 307.127,289.112 303.5,287C 291.084,280.751 278.417,275.084 265.5,270C 263.415,268.959 261.748,267.459 260.5,265.5C 260.977,264.522 261.643,263.689 262.5,263C 265.377,261.873 268.377,261.206 271.5,261C 305.256,259.959 338.923,257.792 372.5,254.5 Z"/></g>
<g><path style="opacity:0.765" fill="#bec7d7" d="M 178.5,304.5 C 179.5,305.167 180.5,305.833 181.5,306.5C 180.508,306.328 179.842,306.662 179.5,307.5C 169.68,310.788 159.68,313.455 149.5,315.5C 150.506,311.924 152.673,310.591 156,311.5C 156.835,308.731 158.335,308.065 160.5,309.5C 162.999,308.668 165.332,308.335 167.5,308.5C 168.167,309.833 168.833,309.833 169.5,308.5C 170.167,308.5 170.5,308.167 170.5,307.5C 170.842,306.662 171.508,306.328 172.5,306.5C 172.369,307.239 172.536,307.906 173,308.5C 174.518,307.837 175.685,306.837 176.5,305.5C 177.167,305.167 177.833,304.833 178.5,304.5 Z"/></g>
</svg>
